<?xml version="1.0"?>
<svg xmlns="http://www.w3.org/2000/svg" height="512px" viewBox="0 0 512 512" width="512px" class=""><g><path d="m0 121h512v-121h-512zm181-75h30v30h-30zm-60 0h30v30h-30zm-60 0h30v30h-30zm0 0" data-original="#000000" class="active-path" data-old_color="#000000" fill="#000000"/><path d="m172.578125 396.492188 27.011719-15.601563c5.398437 4.097656 14.230468 14.324219 31.433594 20.4375l9.976562 3.542969v31.128906h30v-31.097656l9.960938-3.546875c17.179687-6.148438 25.921874-16.265625 31.449218-20.464844l27.015625 15.601563 15-25.984376-26.75-15.453124c1.523438-8.886719 3.324219-15.660157 3.324219-24.054688 0-8.378906-1.785156-15.089844-3.324219-24.054688l26.746094-15.453124-15-25.984376-27.011719 15.601563c-5.421875-4.121094-14.179687-14.285156-31.449218-20.464844l-9.960938-3.546875v-31.097656h-30v31.097656l-9.960938 3.546875c-17.175781 6.148438-25.921874 16.265625-31.449218 20.464844l-27.011719-15.601563-15 25.984376 26.746094 15.453124c-1.523438 8.886719-3.324219 15.660157-3.324219 24.054688 0 8.378906 1.785156 15.089844 3.324219 24.054688l-26.746094 15.453124zm83.421875-110.492188c24.8125 0 45 20.1875 45 45s-20.1875 45-45 45-45-20.1875-45-45 20.1875-45 45-45zm0 0" data-original="#000000" class="active-path" data-old_color="#000000" fill="#000000"/><path d="m256 346c8.277344 0 15-6.722656 15-15s-6.722656-15-15-15-15 6.722656-15 15 6.722656 15 15 15zm0 0" data-original="#000000" class="active-path" data-old_color="#000000" fill="#000000"/><path d="m0 512h512v-361h-512zm151-181c0-2.84375.144531-5.652344.394531-8.421875l-34.804687-20.097656 45-77.960938 35.15625 20.304688c4.542968-3.136719 9.304687-5.902344 14.253906-8.277344v-40.546875h90v40.546875c4.949219 2.375 9.710938 5.140625 14.253906 8.277344l35.15625-20.304688 45 77.960938-34.804687 20.097656c.246093 2.769531.394531 5.578125.394531 8.421875s-.144531 5.652344-.394531 8.421875l34.804687 20.097656-45 77.960938-35.15625-20.304688c-4.542968 3.136719-9.304687 5.902344-14.253906 8.277344v40.546875h-90v-40.546875c-4.949219-2.375-9.710938-5.140625-14.253906-8.277344l-35.15625 20.304688-45-77.960938 34.804687-20.097656c-.25-2.769531-.394531-5.578125-.394531-8.421875zm0 0" data-original="#000000" class="active-path" data-old_color="#000000" fill="#000000"/></g> </svg>
