<?xml version="1.0"?>
<svg xmlns="http://www.w3.org/2000/svg" xmlns:xlink="http://www.w3.org/1999/xlink" version="1.1" id="Capa_1" x="0px" y="0px" width="512px" height="512px" viewBox="0 0 404.09 404.091" style="enable-background:new 0 0 404.09 404.091;" xml:space="preserve" class=""><g><g>
	<g id="Layer_8_2_">
		<path d="M195.591,99.628v28.446c-0.011,14.726-43.794,26.667-97.795,26.667C43.784,154.742,0.012,142.8,0,128.075V99.628    c0,14.73,43.784,26.67,97.795,26.67C151.808,126.299,195.591,114.359,195.591,99.628z M195.591,94.242    c0,14.733-43.783,26.673-97.795,26.673C43.784,120.915,0,108.975,0,94.242c0-14.731,43.784-26.67,97.795-26.67    C151.808,67.571,195.591,79.511,195.591,94.242z M145.003,92.725l-85.911-5.863l-2.92,5.25l3.185,0.443    c4.365,0.615,9.907,1.961,7.335,6.55l-0.801,1.428l15.88,1.083l0.801-1.431c1.104-1.983,1.445-3.68,1.029-5.13l57.894,3.948    L145.003,92.725z M97.795,162.009C43.784,162.009,0,150.069,0,135.336v28.449c0.012,14.726,43.784,26.668,97.795,26.668    c54.001,0,97.784-11.942,97.795-26.668v-28.449C195.591,150.069,151.801,162.009,97.795,162.009z M97.795,197.922    C43.784,197.922,0,185.979,0,171.25v28.451c0.012,14.719,43.784,26.658,97.795,26.658c54.001,0,97.784-11.939,97.795-26.658    V171.25C195.591,185.979,151.801,197.922,97.795,197.922z M97.795,233.217C43.784,233.217,0,221.276,0,206.541v28.454    c0.012,14.719,43.784,26.665,97.795,26.665c54.001,0,97.784-11.946,97.795-26.665v-28.454    C195.591,221.293,151.801,233.217,97.795,233.217z M97.795,268.09C43.784,268.09,0,256.144,0,241.414v28.442    c0.012,14.73,43.784,26.67,97.795,26.67c54.001,0,97.784-11.939,97.795-26.67v-28.442    C195.591,256.144,151.801,268.09,97.795,268.09z M97.795,302.891C43.784,302.891,0,290.951,0,276.215v28.454    c0.012,14.721,43.784,26.665,97.795,26.665c54.001,0,97.784-11.944,97.795-26.665v-28.454    C195.591,290.951,151.801,302.891,97.795,302.891z M209.106,101.533h0.714v0.722c15.497,2.818,34.122,4.471,54.162,4.471    c53.995,0,97.771-11.94,97.795-26.665V51.612c0,14.732-43.787,26.673-97.795,26.673c-54.009,0-97.797-11.946-97.797-26.679V62.31    c23.467,5.642,43.635,15.74,43.635,33.833C209.82,98.036,209.536,99.807,209.106,101.533z M166.185,46.222    c0-14.731,43.789-26.67,97.797-26.67c54.008,0,97.795,11.939,97.795,26.67c0,14.736-43.787,26.678-97.795,26.678    C209.973,72.9,166.185,60.958,166.185,46.222z M216.757,47.74l85.909,5.861l2.928-5.245l-3.19-0.441    c-4.378-0.618-9.898-1.961-7.349-6.549l0.816-1.437l-15.879-1.081l-0.789,1.434c-1.117,1.984-1.456,3.683-1.041,5.133    l-57.893-3.951L216.757,47.74z M263.982,142.43c53.995,0,97.771-11.939,97.795-26.665V87.316c0,14.73-43.787,26.673-97.795,26.673    c-20.04,0-38.665-1.652-54.162-4.479v20.466c-0.013,2.583-0.448,4.985-1.228,7.256h1.228v0.722    C225.309,140.784,243.942,142.43,263.982,142.43z M209.82,173.153v0.726c15.497,2.818,34.122,4.47,54.162,4.47    c53.995,0,97.771-11.94,97.795-26.667v-28.446c0,14.736-43.787,26.676-97.795,26.676c-20.04,0-38.665-1.647-54.162-4.47v20.243    c-0.013,2.667-0.494,5.144-1.315,7.469H209.82z M361.777,184.277v-25.743c0,8.901-16.034,16.755-40.593,21.601    C331.964,180.617,346.919,181.733,361.777,184.277z M209.82,198.245c9.497-6.465,23.682-10.673,38.335-13.409    c-13.986-0.621-26.998-2.038-38.335-4.101V198.245z M306.294,249.179c-54.014,0-97.795-11.946-97.795-26.688v28.454    c0.027,14.73,43.792,26.671,97.795,26.671c54.017,0,97.785-11.94,97.796-26.671v-28.454    C404.098,237.232,360.311,249.179,306.294,249.179z M306.294,190.453c54.017,0,97.796,11.94,97.796,26.665    c0,14.731-43.779,26.676-97.796,26.676c-54.014,0-97.795-11.944-97.795-26.676C208.5,202.393,252.292,190.453,306.294,190.453z     M320.497,216.302l-57.896-3.95l-3.502,6.282l85.91,5.865l2.924-5.258l-3.185-0.433c-4.361-0.623-9.894-1.963-7.335-6.561    l0.799-1.424l-15.88-1.078l-0.785,1.424C320.418,213.156,320.073,214.857,320.497,216.302z M306.294,284.877    c-54.014,0-97.795-11.945-97.795-26.676v28.46c0.027,14.73,43.792,26.673,97.795,26.673c54.017,0,97.785-11.942,97.796-26.673    v-28.442C404.098,272.932,360.311,284.877,306.294,284.877z M306.294,320.79c-54.014,0-97.795-11.939-97.795-26.67v28.449    c0.027,14.719,43.792,26.665,97.795,26.665c54.017,0,97.785-11.946,97.796-26.665V294.12    C404.098,308.861,360.311,320.79,306.294,320.79z M306.294,356.103c-54.014,0-97.795-11.947-97.795-26.678v28.454    c0.027,14.721,43.792,26.66,97.795,26.66c54.017,0,97.785-11.939,97.796-26.66v-28.454    C404.098,344.155,360.311,356.103,306.294,356.103z" data-original="#000000" class="active-path" data-old_color="#ffffff" fill="#ffffff"/>
	</g>
</g></g> </svg>
