<?xml version="1.0"?>
<svg xmlns="http://www.w3.org/2000/svg" height="512px" viewBox="0 0 512 512" width="512px"><path d="m167.632812 192.800781c-8.28125 0-15 6.714844-15 15v40.917969l-28.273437-48.476562c-3.417969-5.855469-10.332031-8.691407-16.875-6.921876-6.539063 1.769532-11.082031 7.703126-11.082031 14.480469v96.398438c0 8.285156 6.714844 15 15 15 8.28125 0 15-6.714844 15-15v-40.917969l28.273437 48.476562c1.492188 2.554688 7.3125 9.507813 16.875 6.921876 6.539063-1.769532 11.082031-7.703126 11.082031-14.480469v-96.398438c0-8.285156-6.714843-15-15-15zm0 0" fill="#FFFFFF"/><path d="m411.304688 193.039062c-8.148438-1.472656-15.957032 3.9375-17.433594 12.089844l-7.5 41.488282-15.84375-43.910157c-2.144532-5.941406-7.785156-9.90625-14.105469-9.90625 0 0-.003906 0-.007813 0-6.3125 0-11.953124 3.957031-14.101562 9.894531l-15.886719 43.917969-7.464843-41.472656c-1.46875-8.152344-9.269532-13.570313-17.417969-12.105469-8.152344 1.46875-13.574219 9.269532-12.105469 17.421875l17.351562 96.398438c1.203126 6.679687 6.734376 11.71875 13.496094 12.289062 6.773438.578125 13.0625-3.464843 15.371094-9.84375l20.742188-57.351562 20.691406 57.339843c2.160156 5.984376 7.832031 9.910157 14.101562 9.910157 10.339844 0 14.117188-8.726563 14.769532-12.332031l17.433593-96.398438c1.472657-8.152344-3.941406-15.953125-12.089843-17.429688zm0 0" fill="#FFFFFF"/><path d="m264.03125 222.800781c8.285156 0 15-6.714843 15-15 0-8.285156-6.714844-15-15-15h-48.199219c-8.28125 0-15 6.714844-15 15v96.398438c0 8.285156 6.71875 15 15 15h48.199219c8.285156 0 15-6.714844 15-15 0-8.285157-6.714844-15-15-15h-33.199219v-18.199219h25.167969c8.285156 0 15-6.714844 15-15s-6.714844-15-15-15h-25.167969v-18.199219zm0 0" fill="#FFFFFF"/><path d="m512 256c0-12.0625-4.191406-23.859375-11.789062-33.203125l-21.472657-26.457031 5.355469-33.691406c4.496094-28.105469-13.496094-49.996094-33.222656-57.515626l-31.886719-12.210937-12.148437-31.769531c-8.84375-23.398438-33.0625-37.167969-57.519532-33.261719l-33.683594 5.367187-26.441406-21.449218c-9.320312-7.617188-21.105468-11.808594-33.191406-11.808594-12.0625 0-23.859375 4.191406-33.203125 11.789062l-26.457031 21.472657-33.691406-5.355469c-28.105469-4.496094-49.996094 13.496094-57.515626 33.222656l-12.210937 31.882813-31.769531 12.148437c-23.398438 8.847656-37.167969 33.0625-33.261719 57.523438l5.367187 33.683594-21.449218 26.441406c-7.617188 9.320312-11.808594 21.105468-11.808594 33.191406 0 12.0625 4.191406 23.859375 11.789062 33.203125l21.472657 26.457031-5.355469 33.691406c-4.496094 28.105469 13.496094 49.996094 33.222656 57.515626l31.886719 12.210937 12.148437 31.769531c8.84375 23.398438 33.0625 37.167969 57.519532 33.261719l33.683594-5.367187 26.445312 21.449218c9.316406 7.617188 21.101562 11.808594 33.1875 11.808594 12.0625 0 23.859375-4.191406 33.203125-11.789062l26.457031-21.472657 33.691406 5.355469c28.105469 4.496094 49.996094-13.496094 57.515626-33.222656l12.210937-31.886719 31.769531-12.148437c23.398438-8.84375 37.167969-33.0625 33.261719-57.519532l-5.367187-33.683594 21.449218-26.445312c7.617188-9.316406 11.808594-21.101562 11.808594-33.1875zm-35.070312 14.25-23.523438 29c-.066406.085938-.136719.171875-.207031.257812-5.839844 7.535157-4.972657 15.300782-4.589844 17.65625l5.875 36.878907c1.410156 8.847656-2.699219 20.371093-14.300781 24.753906l-34.867188 13.335937c-.058594.019532-.117187.042969-.171875.066407-5.359375 2.125-10.488281 6.570312-12.957031 13.121093l-13.34375 34.84375c-3.195312 8.382813-12.527344 16.265626-24.769531 14.308594l-36.875-5.867187c-.046875-.007813-.09375-.015625-.140625-.019531-8.714844-1.300782-14.976563 2.464843-17.867188 4.882812l-28.902344 23.460938c-8.253906 6.710937-20.207031 6.804687-28.539062 0l-29-23.523438c-.085938-.066406-.171875-.136719-.257812-.203125-7.535157-5.839844-15.300782-4.976563-17.65625-4.59375l-36.878907 5.875c-8.847656 1.414063-20.371093-2.699219-24.753906-14.296875l-13.335937-34.871094c-.019532-.058594-.042969-.113281-.066407-.171875-2.125-5.359375-6.570312-10.484375-13.121093-12.957031l-34.84375-13.34375c-8.382813-3.195312-16.265626-12.523438-14.308594-24.765625l5.867187-36.875c.007813-.050781.015625-.097656.019531-.144531 1.300782-8.714844-2.464843-14.972656-4.882812-17.867188l-23.460938-28.902344c-6.710937-8.253906-6.804687-20.207031 0-28.535156l23.523438-29c.066406-.089844.136719-.175781.203125-.261718 5.839844-7.535157 4.976563-15.300782 4.59375-17.652344l-5.875-36.882813c-1.414063-8.847656 2.699219-20.367187 14.296875-24.753906l34.871094-13.335937c.058594-.019532.113281-.042969.171875-.066407 5.359375-2.121093 10.484375-6.570312 12.957031-13.121093l13.34375-34.839844c3.195312-8.386719 12.523438-16.265625 24.765625-14.308594l36.875 5.863281c.050781.007813.097656.015625.144531.019531 8.714844 1.300782 14.972656-2.464843 17.867188-4.882812l28.902344-23.457031c8.253906-6.714844 20.207031-6.808594 28.535156-.003907l29 23.523438c.089844.066406.175781.136719.261718.207031 7.535157 5.839844 15.300782 4.972657 17.652344 4.589844l36.882813-5.875c8.847656-1.410156 20.367187 2.699219 24.753906 14.300781l13.335937 34.867188c.019532.058594.042969.117187.066407.171875 2.121093 5.359375 6.570312 10.488281 13.121093 12.957031l34.839844 13.34375c8.386719 3.195312 16.265625 12.527344 14.308594 24.769531l-5.863281 36.875c-.007813.046875-.015625.09375-.019531.140625-1.300782 8.714844 2.464843 14.976563 4.882812 17.867188l23.457031 28.902344c6.714844 8.253906 6.808594 20.207031.003907 28.539062zm0 0" fill="#FFFFFF"/></svg>
