<?xml version="1.0"?>
<svg xmlns="http://www.w3.org/2000/svg" height="512px" viewBox="0 0 448 448" width="512px"><path d="m176 240h16v16h-16zm0 0" fill="#000000"/><path d="m176 176h16v16h-16zm0 0" fill="#000000"/><path d="m128 448h48v-112h96v112h48v-448h-192zm112-416h48v48h-48zm0 64h48v48h-48zm0 64h48v48h-48zm0 64h48v48h-48zm-80-192h48v48h-48zm0 64h48v48h-48zm0 64h48v48h-48zm0 64h48v48h-48zm-16 80h160v16h-160zm0 0" fill="#000000"/><path d="m192 352h64v96h-64zm0 0" fill="#000000"/><path d="m384 304h16v16h-16zm0 0" fill="#000000"/><path d="m256 48h16v16h-16zm0 0" fill="#000000"/><path d="m256 112h16v16h-16zm0 0" fill="#000000"/><path d="m176 112h16v16h-16zm0 0" fill="#000000"/><path d="m384 240h16v16h-16zm0 0" fill="#000000"/><path d="m176 48h16v16h-16zm0 0" fill="#000000"/><path d="m256 240h16v16h-16zm0 0" fill="#000000"/><path d="m256 176h16v16h-16zm0 0" fill="#000000"/><path d="m336 128v320h17.726562c-1.128906-5.257812-1.707031-10.621094-1.726562-16 0-31.398438 17.601562-56 40-56s40 24.601562 40 56c-.019531 5.378906-.597656 10.742188-1.726562 16h17.726562v-320zm80 208h-48v-48h48zm0-64h-48v-48h48zm0-64h-48v-48h48zm0 0" fill="#000000"/><path d="m48 176h16v16h-16zm0 0" fill="#000000"/><path d="m392 392c-13.007812 0-24 18.320312-24 40-.007812 5.402344.703125 10.785156 2.113281 16h43.773438c1.410156-5.214844 2.121093-10.597656 2.113281-16 0-21.679688-10.992188-40-24-40zm0 0" fill="#000000"/><path d="m48 240h16v16h-16zm0 0" fill="#000000"/><path d="m384 176h16v16h-16zm0 0" fill="#000000"/><path d="m72 352c0-26.507812-10.746094-48-24-48s-24 21.492188-24 48 10.746094 48 24 48 24-21.492188 24-48zm0 0" fill="#000000"/><path d="m8 128h-8v320h40v-33.238281c-18.472656-5.777344-32-31.265625-32-62.761719 0-35.886719 17.601562-64 40-64s40 28.113281 40 64c0 31.496094-13.527344 56.984375-32 62.761719v33.238281h56v-320zm24 32h48v48h-48zm0 64h48v48h-48zm0 0" fill="#000000"/></svg>
